<?xml version="1.0" encoding="UTF-8"?>
<svg version="1.1" xmlns="http://www.w3.org/2000/svg" width="447" height="447">
<path d="M0 0 C147.51 0 295.02 0 447 0 C447 147.51 447 295.02 447 447 C299.49 447 151.98 447 0 447 C0 299.49 0 151.98 0 0 Z " fill="#FDFEFF" transform="translate(0,0)"/>
<path d="M0 0 C1.68940175 -0.00378776 3.37880038 -0.00929156 5.06819153 -0.01637268 C9.63403056 -0.03027966 14.1994908 -0.01919353 18.76530862 -0.00266147 C23.54936761 0.01122874 28.33340551 0.00472487 33.11747742 0.00120544 C41.14446087 -0.00149223 49.1712944 0.01194531 57.19824219 0.03515625 C66.47958562 0.06180853 75.76067917 0.06349708 85.0420478 0.05176789 C93.97750377 0.04099501 102.91286932 0.04717039 111.8483181 0.06132317 C115.64928512 0.06708266 119.45018596 0.06700069 123.25115395 0.06225777 C127.72216047 0.05749057 132.19289265 0.06757882 136.66384697 0.08921242 C138.30536092 0.09478231 139.94690122 0.09524372 141.58841705 0.09025955 C143.82673188 0.08431476 146.06420549 0.09679494 148.30244446 0.11402893 C150.18196037 0.11767377 150.18196037 0.11767377 152.0994463 0.12139225 C155.49240757 0.5306222 156.9170553 1.03498484 159.25268555 3.50170898 C159.81518555 6.93920898 159.81518555 6.93920898 159.25268555 10.50170898 C156.55035725 13.327876 154.87740333 14.40560333 150.98808002 15.00393105 C149.74164817 15.00502058 148.49521631 15.00611012 147.21101379 15.00723267 C146.16541645 15.01636785 146.16541645 15.01636785 145.09869593 15.02568758 C142.76923139 15.04127066 140.44079754 15.02850717 138.11132812 15.01586914 C136.43897353 15.02133048 134.76662395 15.02857221 133.09428406 15.03746033 C129.49672244 15.05279314 125.89944598 15.05560143 122.3018589 15.04869461 C116.61735997 15.03791567 110.93315967 15.05527965 105.248703 15.07650757 C96.26266574 15.10676403 87.27671688 15.11846242 78.2906329 15.12208402 C62.18474762 15.12873587 46.07892307 15.15764578 29.97311324 15.20718038 C24.31780883 15.22371622 18.66263296 15.22908791 13.00730669 15.22558999 C9.49674314 15.22515424 5.98622852 15.23269792 2.4756794 15.2422657 C0.84299669 15.24495764 -0.7896958 15.24418136 -2.42237473 15.23975563 C-4.64390716 15.2341481 -6.8650824 15.24062292 -9.08659363 15.25015259 C-10.33189441 15.25048807 -11.57719519 15.25082355 -12.86023235 15.2511692 C-15.8754293 15.20093947 -15.8754293 15.20093947 -17.74731445 17.50170898 C-18.07731445 28.06170898 -18.40731445 38.62170898 -18.74731445 49.50170898 C101.04268555 49.50170898 220.83268555 49.50170898 344.25268555 49.50170898 C346.10329767 30.83350054 346.10329767 30.83350054 340.25268555 15.50170898 C337.27543447 15.05107284 337.27543447 15.05107284 333.81338501 15.12989807 C332.82865395 15.12416123 332.82865395 15.12416123 331.82402933 15.11830848 C329.61985729 15.10900794 327.41631086 15.12102406 325.2121582 15.1328125 C323.6336389 15.13034511 322.05512124 15.12650732 320.47660828 15.12139893 C317.0749428 15.11305278 313.67344467 15.11387538 310.27177811 15.12158394 C304.89329509 15.13315095 299.5150281 15.12101759 294.13656616 15.10496521 C280.77593289 15.06874267 267.41530435 15.06254142 254.05462646 15.06506348 C243.67481683 15.06677393 233.29518313 15.05967204 222.9154228 15.02508491 C217.56860028 15.00827535 212.22220642 15.01009908 206.87538552 15.02590764 C203.54816904 15.0317011 200.22115617 15.02097064 196.89397621 15.00566101 C195.35124497 15.00193193 193.80847964 15.00505115 192.2657795 15.01553154 C190.15865557 15.02889217 188.05301752 15.01770408 185.94595337 15.00050354 C184.17780746 15.00081747 184.17780746 15.00081747 182.37394142 15.00113773 C178.5782799 14.39379807 176.90376325 13.25135681 174.25268555 10.50170898 C173.44185753 4.72455938 173.44185753 4.72455938 175.37367058 1.81109524 C178.17173485 -0.13872792 180.42926428 0.12087546 183.81692505 0.11402893 C184.48692437 0.10864339 185.15692369 0.10325786 185.84722602 0.09770912 C188.09731094 0.08337647 190.34681192 0.09054613 192.59692383 0.09765625 C194.20836359 0.09195515 195.81979931 0.0849919 197.43122864 0.07685852 C201.81380487 0.05887568 206.19618142 0.06010598 210.57878351 0.06580091 C214.23898892 0.06888773 217.8991557 0.06280541 221.55935562 0.05676216 C230.19967782 0.04269951 238.83990122 0.04429049 247.48022461 0.05566406 C256.38420563 0.06712601 265.28788478 0.05310606 274.19182599 0.02626759 C281.84039303 0.00407895 289.48886556 -0.00251905 297.1374625 0.003344 C301.70354294 0.00670977 306.26943025 0.00432479 310.83548355 -0.01290703 C315.13492912 -0.02842274 319.43393009 -0.0243696 323.73335838 -0.00560188 C325.30666077 -0.00192765 326.8799964 -0.00499032 328.45326805 -0.01548767 C346.34991324 -0.12572647 346.34991324 -0.12572647 353.40893555 6.53686523 C353.85237305 7.20588867 354.29581055 7.87491211 354.75268555 8.56420898 C355.21674805 9.23581055 355.68081055 9.90741211 356.15893555 10.59936523 C358.27708824 14.28343795 358.38530885 17.3270815 358.40658569 21.49217224 C358.41518616 22.74422455 358.42378662 23.99627686 358.43264771 25.28627014 C358.43708274 26.67636067 358.44138112 28.06645164 358.44555664 29.45654297 C358.45345895 30.91845901 358.46172798 32.38037311 358.47033691 33.84228516 C358.49653348 38.64410545 358.5118582 43.44593439 358.52612305 48.24780273 C358.53148295 49.90043709 358.53686046 51.5530714 358.5422554 53.20570564 C358.5638771 60.07793516 358.58261565 66.95016235 358.59387779 73.82241726 C358.61013138 83.67567236 358.64335104 93.52853407 358.70027864 103.38164085 C358.73893685 110.30824592 358.75850534 117.23474555 358.76379836 124.16145569 C358.76745637 128.29991328 358.77952538 132.43795105 358.81190109 136.57629204 C358.84191119 140.4678373 358.84831935 144.35870713 358.83651733 148.25034332 C358.83629603 149.67902961 358.84464837 151.10774661 358.86217117 152.53632545 C358.88477995 154.48550661 358.87360886 156.43499264 358.86068726 158.38426208 C358.86565248 160.0210525 358.86565248 160.0210525 358.870718 161.69090939 C358.25268555 164.50170898 358.25268555 164.50170898 355.87484169 166.84889317 C353.25268555 168.50170898 353.25268555 168.50170898 350.69018555 169.06420898 C348.25268555 168.50170898 348.25268555 168.50170898 344.25268555 163.50170898 C344.25268555 130.50170898 344.25268555 97.50170898 344.25268555 63.50170898 C224.46268555 63.50170898 104.67268555 63.50170898 -18.74731445 63.50170898 C-18.62356445 109.82545898 -18.49981445 156.14920898 -18.37231445 203.87670898 C-18.33831543 218.52867676 -18.30431641 233.18064453 -18.26928711 248.27661133 C-18.22939947 261.35738035 -18.22939947 261.35738035 -18.18685913 274.43814087 C-18.16791404 280.28555176 -18.15443927 286.13294451 -18.1446228 291.9803772 C-18.13329512 298.71690963 -18.11514035 305.45338149 -18.08838566 312.18987099 C-18.0749051 315.63915166 -18.06460043 319.08836243 -18.06306005 322.53767085 C-18.05976936 326.22299842 -18.04438621 329.90807603 -18.02578735 333.59335327 C-18.02772284 334.68057489 -18.02965832 335.76779652 -18.03165245 336.88796425 C-18.02045309 338.36265238 -18.02045309 338.36265238 -18.00902748 339.86713219 C-18.00674916 340.71998405 -18.00447084 341.57283591 -18.00212348 342.45153177 C-17.93264733 344.72603955 -17.93264733 344.72603955 -15.74731445 346.50170898 C-12.7751823 346.69884525 -9.89597377 346.76912932 -6.9226532 346.75326538 C-5.99750579 346.75623552 -5.07235839 346.75920566 -4.11917621 346.7622658 C-0.99996188 346.76994208 2.11906615 346.76339696 5.23828125 346.75708008 C7.46688973 346.75982827 9.69549724 346.76350713 11.92410278 346.76805115 C16.73301325 346.77618009 21.54187716 346.77832735 26.35079384 346.77610397 C33.95128325 346.77327881 41.5516791 346.7875931 49.15214539 346.80508423 C59.8060171 346.82829981 70.45988084 346.84740837 81.11376953 346.86010742 C82.12841003 346.86132298 82.12841003 346.86132298 83.16354831 346.86256309 C92.76018751 346.87378144 102.35682091 346.87906478 111.95346578 346.88195021 C112.96674192 346.8822562 112.96674192 346.8822562 114.00048828 346.88256836 C114.67518381 346.8827683 115.34987935 346.88296823 116.0450202 346.88317423 C127.29442305 346.88690669 138.54373848 346.90622098 149.79310292 346.93766272 C157.35185061 346.95792163 164.9103272 346.96022477 172.46909106 346.94938254 C177.16966269 346.9467804 181.87007564 346.96075547 186.57060623 346.97946358 C188.753517 346.98479846 190.93645676 346.98326678 193.11935616 346.97442818 C196.09564353 346.96334762 199.07085228 346.97669185 202.04707336 346.9961853 C202.91439018 346.98706065 203.781707 346.97793599 204.67530614 346.96853483 C208.6757924 347.01964696 210.78402318 347.22285129 214.29288006 349.31064796 C216.25268555 351.50170898 216.25268555 351.50170898 216.81518555 355.06420898 C216.25268555 358.50170898 216.25268555 358.50170898 214.78716564 360.19232273 C210.95939486 362.16986063 207.38824161 361.91863783 203.13850403 361.88938904 C202.20630293 361.89477458 201.27410183 361.90016011 200.31365222 361.90570885 C197.18227544 361.9200443 194.05131807 361.91287077 190.91992188 361.90576172 C188.67780211 361.91146251 186.43568525 361.91842563 184.193573 361.92655945 C178.09625093 361.94454212 171.99907238 361.94331236 165.90173173 361.93761706 C160.81241652 361.93453131 155.72312911 361.94061112 150.63381785 361.94665581 C137.93739599 361.96152194 125.24107578 361.95787363 112.54466011 361.9457925 C101.52873544 361.93586991 90.51297897 361.94878259 79.49708024 361.9727267 C68.17981381 361.99713988 56.86264777 362.00632024 45.54534739 362.00007397 C39.19413263 361.9967034 32.84305668 361.99912579 26.49186134 362.016325 C20.51560044 362.03180117 14.53965999 362.02783068 8.56341171 362.00901985 C6.37249881 362.00533529 4.18156215 362.00843852 1.99067116 362.01890564 C-1.00599215 362.03212658 -4.00159644 362.02055747 -6.99821472 362.00291443 C-7.86029783 362.01251944 -8.72238094 362.02212444 -9.61058778 362.03202051 C-16.48864001 361.94900608 -22.79946275 360.28401104 -27.90356445 355.46655273 C-28.34700195 354.7975293 -28.79043945 354.12850586 -29.24731445 353.43920898 C-29.71137695 352.76760742 -30.17543945 352.09600586 -30.65356445 351.40405273 C-32.67956949 347.88025111 -32.87373286 345.0152496 -32.87874222 341.03520775 C-32.88258336 339.89223114 -32.88642451 338.74925454 -32.89038205 337.57164228 C-32.88951557 336.31028884 -32.88864909 335.0489354 -32.88775635 333.74935913 C-32.89033947 332.40024881 -32.89335248 331.05113926 -32.89675975 329.70203078 C-32.90483949 325.9864643 -32.90661987 322.27091713 -32.90735722 318.55534291 C-32.90920612 314.55109083 -32.91675273 310.54684881 -32.92349243 306.54260254 C-32.93708407 297.78212608 -32.94310201 289.0216542 -32.94750309 280.26116896 C-32.9502646 274.79138689 -32.95450183 269.32160659 -32.95900726 263.85182571 C-32.97120194 248.70920358 -32.98150026 233.56658286 -32.98488235 218.42395592 C-32.98510192 217.45444885 -32.98532149 216.48494178 -32.98554771 215.48605571 C-32.98576598 214.5142162 -32.98598426 213.5423767 -32.98620915 212.54108751 C-32.98665262 210.57174388 -32.98709918 208.60240026 -32.98754883 206.63305664 C-32.98777026 205.65619229 -32.98799169 204.67932795 -32.98821983 203.67286165 C-32.99216665 187.84905441 -33.00961626 172.02529325 -33.03290835 156.2015038 C-33.0566261 139.95743527 -33.06908443 123.71338985 -33.07025027 107.46930373 C-33.07116689 98.34812577 -33.07691579 89.22700783 -33.09506989 80.10584641 C-33.11047671 72.33753897 -33.11558797 64.56931008 -33.10733178 56.80099027 C-33.10342709 52.83837384 -33.10434593 48.87591557 -33.11838913 44.91331863 C-33.13113917 41.28234525 -33.129921 37.65164868 -33.11779842 34.02067561 C-33.11492037 32.09185138 -33.12676898 30.16302231 -33.13922048 28.23423612 C-33.09361995 20.2167746 -32.1619293 13.68085006 -28.12231445 6.68920898 C-20.07722772 -0.72073932 -10.26402416 -0.06569576 0 0 Z " fill="#12B9FF" transform="translate(60.747314453125,42.498291015625)"/>
<path d="M0 0 C0.78528076 0.00563965 1.57056152 0.0112793 2.37963867 0.01708984 C19.80853242 0.37615527 35.72089581 7.32468902 48.3125 19.3125 C60.98178982 33.19743382 65.78190061 48.58212077 65.51953125 67.01953125 C64.39488308 84.90780303 58.10900673 99.61224085 44.93164062 111.90527344 C29.97847412 124.90136085 11.99438274 128.17002846 -7.13525391 127.49609375 C-12.68991447 127.09652375 -17.60328356 125.49450593 -22.6875 123.3125 C-24.01974609 122.75175781 -24.01974609 122.75175781 -25.37890625 122.1796875 C-39.5363626 115.65212748 -51.41172915 103.56788752 -56.875 88.875 C-57.48554635 87.02292426 -58.08997306 85.16881704 -58.6875 83.3125 C-58.98785156 82.54550781 -59.28820312 81.77851563 -59.59765625 80.98828125 C-65.08343835 65.95978982 -61.56481625 48.99902668 -55.11328125 34.86328125 C-46.6971424 19.54159258 -33.37146935 7.7500764 -16.6875 2.3125 C-10.99783112 0.65859421 -5.91479144 -0.04502832 0 0 Z " fill="#19A6FF" transform="translate(151.6875,155.6875)"/>
<path d="M0 0 C1.33611328 1.06347656 1.33611328 1.06347656 2.69921875 2.1484375 C9.20280685 7.66602985 14.1922469 13.98252961 19 21 C19.5671875 21.82371094 20.134375 22.64742187 20.71875 23.49609375 C32.85163414 42.3453959 37.4223684 69.60173748 33.24609375 91.64453125 C32.37356327 95.50590457 31.24648986 99.24327798 30 103 C29.69964844 103.90621094 29.39929688 104.81242187 29.08984375 105.74609375 C25.13317039 116.45137881 19.38761052 126.32758765 12 135 C11.40703125 135.73734375 10.8140625 136.4746875 10.203125 137.234375 C4.90927124 143.57824934 -1.24018876 148.29391888 -8 153 C-9.01707031 153.72509766 -9.01707031 153.72509766 -10.0546875 154.46484375 C-30.64941724 168.29778454 -57.13022984 171.07974986 -81.125 166.875 C-94.57994518 163.60585696 -105.73695539 157.89465744 -117 150 C-117.76957031 149.49726563 -118.53914063 148.99453125 -119.33203125 148.4765625 C-121.87751904 146.22317987 -121.91510821 144.21278374 -122.15625 140.9453125 C-122 139 -122 139 -120.5 136.4375 C-117.79312063 134.88104436 -116.14642163 134.49909174 -113.07421875 135.13671875 C-110.4292659 136.23753717 -108.50294052 137.79158396 -106.25 139.5625 C-95.64081314 147.66938209 -82.44421658 153.24896697 -69 153 C-67.79859375 153.02320313 -66.5971875 153.04640625 -65.359375 153.0703125 C-61.56832115 153.12403189 -57.79047398 153.07328521 -54 153 C-53.03707031 153.01804687 -52.07414062 153.03609375 -51.08203125 153.0546875 C-31.41270071 152.66629451 -12.16430094 139.61123708 1 126 C16.49673433 108.15692913 20.42930383 87.03516388 19 64 C17.40009454 44.07986566 7.94947184 28.7709186 -6 15 C-6.56460938 14.42636719 -7.12921875 13.85273438 -7.7109375 13.26171875 C-24.03406382 -2.18011202 -46.37196139 -6.95581934 -68.1328125 -6.4140625 C-83.39436646 -5.63255297 -98.38578549 1.20762306 -110 11 C-111.20269531 11.98613281 -111.20269531 11.98613281 -112.4296875 12.9921875 C-124.4352951 23.24621709 -132.20894204 36.07401173 -137 51 C-137.30164063 51.86753906 -137.60328125 52.73507813 -137.9140625 53.62890625 C-143.79079526 72.93424798 -139.83445099 94.27536015 -131 112 C-130.25744901 113.14386496 -129.49113693 114.27319389 -128.6875 115.375 C-126.6266281 118.58080074 -126.34927461 120.25832901 -127 124 C-128.625 126.375 -128.625 126.375 -131 128 C-134 128.5 -134 128.5 -137 128 C-148.39713386 118.34064695 -152.85767303 99.19241378 -155 85 C-155.27634067 81.59794658 -155.33489005 78.22474429 -155.3125 74.8125 C-155.30686035 73.89758789 -155.3012207 72.98267578 -155.29541016 72.04003906 C-154.81756974 45.04442093 -143.24391468 21.40156576 -124.10546875 2.73828125 C-114.36368021 -6.11531318 -103.33741575 -11.68761625 -91 -16 C-90.13375 -16.32742187 -89.2675 -16.65484375 -88.375 -16.9921875 C-59.55446107 -27.49967565 -23.34790481 -18.58889275 0 0 Z " fill="#2D8EFF" transform="translate(214,146)"/>
<path d="M0 0 C0.66999932 -0.00538554 1.33999864 -0.01077108 2.03030097 -0.01631981 C4.28038589 -0.03065246 6.52988687 -0.0234828 8.77999878 -0.01637268 C10.39143854 -0.02207379 12.00287427 -0.02903703 13.61430359 -0.03717041 C17.99687982 -0.05515325 22.37925638 -0.05392295 26.76185846 -0.04822803 C30.42206387 -0.0451412 34.08223065 -0.05122352 37.74243057 -0.05726677 C46.38275277 -0.07132942 55.02297617 -0.06973844 63.66329956 -0.05836487 C72.56728059 -0.04690292 81.47095973 -0.06092287 90.37490094 -0.08776134 C98.02346799 -0.10994998 105.67194051 -0.11654798 113.32053745 -0.11068493 C117.88661789 -0.10731916 122.4525052 -0.10970414 127.0185585 -0.12693596 C131.31800407 -0.14245167 135.61700504 -0.13839853 139.91643333 -0.11963081 C141.48973572 -0.11595658 143.06307135 -0.11901926 144.636343 -0.1295166 C162.53298819 -0.2397554 162.53298819 -0.2397554 169.5920105 6.4228363 C170.035448 7.09185974 170.4788855 7.76088318 170.9357605 8.45018005 C171.399823 9.12178162 171.8638855 9.79338318 172.3420105 10.4853363 C174.46016319 14.16940902 174.5683838 17.21305257 174.58966064 21.37814331 C174.59826111 22.63019562 174.60686157 23.88224792 174.61572266 25.17224121 C174.62015769 26.56233174 174.62445607 27.95242271 174.62863159 29.34251404 C174.6365339 30.80443008 174.64480293 32.26634418 174.65341187 33.72825623 C174.67960843 38.53007652 174.69493315 43.33190546 174.709198 48.1337738 C174.7145579 49.78640816 174.71993541 51.43904247 174.72533035 53.09167671 C174.74695205 59.96390623 174.7656906 66.83613341 174.77695274 73.70838833 C174.79320633 83.56164343 174.82642599 93.41450513 174.88335359 103.26761192 C174.9220118 110.19421699 174.94158029 117.12071662 174.94687331 124.04742676 C174.95053132 128.18588435 174.96260033 132.32392212 174.99497604 136.46226311 C175.02498614 140.35380837 175.03139431 144.2446782 175.01959229 148.13631439 C175.01937098 149.56500068 175.02772332 150.99371768 175.04524612 152.42229652 C175.0678549 154.37147768 175.05668381 156.32096371 175.04376221 158.27023315 C175.04872743 159.90702357 175.04872743 159.90702357 175.05379295 161.57688046 C174.4357605 164.38768005 174.4357605 164.38768005 172.05791664 166.73486423 C169.4357605 168.38768005 169.4357605 168.38768005 166.8732605 168.95018005 C164.4357605 168.38768005 164.4357605 168.38768005 162.3117981 166.46746826 C159.66508489 162.12250411 159.90422022 158.54283941 159.98165894 153.54856873 C159.9811768 152.5468353 159.98069466 151.54510187 159.98019791 150.51301289 C159.98317874 147.27686091 160.01361689 144.04163548 160.0451355 140.8056488 C160.05101811 138.80520572 160.05509792 136.8047565 160.05734253 134.80430603 C160.07829697 127.39450336 160.134142 119.98483256 160.1857605 112.57518005 C160.2682605 96.01330505 160.3507605 79.45143005 160.4357605 62.38768005 C95.7557605 62.38768005 31.0757605 62.38768005 -35.5642395 62.38768005 C-35.5642395 62.05768005 -35.5642395 61.72768005 -35.5642395 61.38768005 C-31.2742395 61.38768005 -26.9842395 61.38768005 -22.5642395 61.38768005 C-22.5642395 57.75768005 -22.5642395 54.12768005 -22.5642395 50.38768005 C-30.1542395 50.38768005 -37.7442395 50.38768005 -45.5642395 50.38768005 C-45.5642395 50.05768005 -45.5642395 49.72768005 -45.5642395 49.38768005 C22.4157605 49.38768005 90.3957605 49.38768005 160.4357605 49.38768005 C162.28637262 30.71947161 162.28637262 30.71947161 156.4357605 15.38768005 C153.45850942 14.9370439 153.45850942 14.9370439 149.99645996 15.01586914 C149.0117289 15.0101323 149.0117289 15.0101323 148.00710428 15.00427955 C145.80293224 14.99497901 143.59938581 15.00699513 141.39523315 15.01878357 C139.81671386 15.01631618 138.23819619 15.01247839 136.65968323 15.00737 C133.25801775 14.99902385 129.85651962 14.99984645 126.45485306 15.00755501 C121.07637005 15.01912202 115.69810305 15.00698866 110.31964111 14.99093628 C96.95900784 14.95471374 83.59837931 14.94851249 70.23770142 14.95103455 C59.85789178 14.952745 49.47825808 14.94564311 39.09849775 14.91105598 C33.75167524 14.89424642 28.40528137 14.89607015 23.05846047 14.91187871 C19.73124399 14.91767217 16.40423112 14.9069417 13.07705116 14.89163208 C11.53431992 14.887903 9.99155459 14.89102222 8.44885445 14.90150261 C6.34173052 14.91486324 4.23609247 14.90367515 2.12902832 14.88647461 C0.36088241 14.88678854 0.36088241 14.88678854 -1.44298363 14.8871088 C-5.23864515 14.27976914 -6.9131618 13.13732788 -9.5642395 10.38768005 C-10.37506752 4.61053045 -10.37506752 4.61053045 -8.44325447 1.69706631 C-5.6451902 -0.25275685 -3.38766077 0.00684653 0 0 Z " fill="#515BFF" transform="translate(244.56423950195313,42.61231994628906)"/>
<path d="M0 0 C3.73879777 0.62313296 4.69282929 1.53343779 7 4.5 C7.50615788 7.44742012 7.50615788 7.44742012 7.5146637 10.94998169 C7.52160922 11.59562856 7.52855475 12.24127542 7.53571075 12.90648735 C7.55399603 15.06838151 7.5437131 17.22918011 7.53344727 19.39111328 C7.54050541 20.94196901 7.54924999 22.49281784 7.55955505 24.0436554 C7.58208077 28.25687813 7.57910051 32.46972572 7.57023358 36.68298578 C7.56512386 40.20397995 7.57241682 43.7249036 7.57970566 47.2458905 C7.59671759 55.55884636 7.59312919 63.87161876 7.57641602 72.18457031 C7.55952481 80.74610092 7.57528472 89.30712054 7.6076389 97.86859524 C7.63439033 105.2276206 7.64159491 112.58648745 7.63312382 119.94555652 C7.62820685 124.3367558 7.63034198 128.72764828 7.65091133 133.11880875 C7.66935369 137.25421753 7.6632064 141.3888969 7.63871193 145.5242672 C7.63372941 147.03587041 7.63712685 148.54752997 7.64986038 150.05908775 C7.72777547 160.10941183 6.87058942 168.50452367 -0.4375 176 C-6.70328625 179.66777732 -12.46312766 179.80161217 -19.53173828 179.80639648 C-20.57957489 179.81472 -21.6274115 179.82304352 -22.70700073 179.83161926 C-26.16147601 179.85566441 -29.6157625 179.86448255 -33.0703125 179.87109375 C-35.47354183 179.88006063 -37.8767706 179.88918249 -40.27999878 179.89845276 C-45.31184242 179.91492782 -50.3436196 179.92264083 -55.37548828 179.92553711 C-61.82992249 179.93093499 -68.28373506 179.96868006 -74.73799324 180.01428127 C-79.69817406 180.0439791 -84.65820341 180.05125901 -89.61846542 180.05226326 C-91.99877663 180.05647606 -94.37908787 180.06895247 -96.75931168 180.08978081 C-100.08236256 180.11655745 -103.40394808 180.11191111 -106.72705078 180.09936523 C-108.20615936 180.12161667 -108.20615936 180.12161667 -109.71514893 180.14431763 C-116.35392205 180.07273887 -116.35392205 180.07273887 -119.64205933 177.15785217 C-121 174.5 -121 174.5 -121 171.375 C-119.83769771 168.0333809 -118.9717706 167.3027907 -116 165.5 C-113.87636471 165.12361908 -113.87636471 165.12361908 -111.55296326 165.12145996 C-110.6683139 165.11325729 -109.78366455 165.10505463 -108.87220764 165.09660339 C-107.90947433 165.10275162 -106.94674103 165.10889984 -105.95483398 165.11523438 C-104.42499878 165.10717522 -104.42499878 165.10717522 -102.86425781 165.09895325 C-100.65059237 165.08917147 -98.43688857 165.0862323 -96.22320366 165.08930969 C-92.72275794 165.0937798 -89.22281986 165.07981084 -85.72242737 165.06091309 C-77.0305942 165.01784141 -68.33877178 165.00686585 -59.64685059 164.99468994 C-52.30045396 164.98318191 -44.95428846 164.95968032 -37.60798836 164.91999817 C-34.15396188 164.90637959 -30.70024357 164.91060732 -27.24620056 164.91540527 C-25.13605347 164.90606873 -23.02590985 164.89590095 -20.91577148 164.88476562 C-19.46863518 164.89398796 -19.46863518 164.89398796 -17.99226379 164.90339661 C-17.11043427 164.89519394 -16.22860474 164.88699127 -15.3200531 164.87854004 C-14.55370765 164.87782753 -13.78736219 164.87711502 -12.99779415 164.87638092 C-10.94370074 164.61986831 -10.94370074 164.61986831 -9.25323486 163.36972713 C-7.41707381 160.63032031 -7.62651609 158.48673184 -7.62818909 155.20582581 C-7.62143158 153.88646027 -7.61467407 152.56709473 -7.60771179 151.20774841 C-7.61526541 149.74209467 -7.62307114 148.27644221 -7.63110352 146.81079102 C-7.62863609 145.2700575 -7.62479827 143.72932566 -7.61968994 142.18859863 C-7.6113446 138.8687793 -7.61216565 135.54913144 -7.61987495 132.22931099 C-7.63144111 126.9813198 -7.61930966 121.73355003 -7.60325623 116.48558044 C-7.56703349 103.45007668 -7.56083352 90.41457782 -7.56335449 77.37902832 C-7.56506443 67.25011424 -7.55798034 57.12138044 -7.52337593 46.99251693 C-7.50655598 41.77420136 -7.50839874 36.55632489 -7.52419865 31.33801091 C-7.52998707 28.09278412 -7.51927093 24.84776649 -7.50395203 21.60257721 C-7.50021913 20.09651478 -7.50335313 18.59041749 -7.51382256 17.08438683 C-7.52715706 15.02944651 -7.51601791 12.97603607 -7.49879456 10.92115784 C-7.49900384 9.77096948 -7.49921312 8.62078112 -7.49942875 7.43573856 C-6.70821465 2.78482942 -4.61457293 0.76909549 0 0 Z " fill="#525AFF" transform="translate(412,224.5)"/>
<path d="M0 0 C1.07242699 -0.00574036 1.07242699 -0.00574036 2.16651917 -0.01159668 C3.67523612 -0.01431259 5.18400042 -0.00697364 6.69262695 0.00976562 C8.9934272 0.03115259 11.29109438 0.00997392 13.59179688 -0.015625 C15.06120477 -0.01298105 16.53061072 -0.00785466 18 0 C18.68348007 -0.00809692 19.36696014 -0.01619385 20.07115173 -0.02453613 C23.29933774 0.03833577 25.42795018 0.45266968 28.24681091 2.05250549 C31.40330273 5.42556658 31.27093052 8.31566233 31.21337891 12.70874023 C31.2221405 13.53034637 31.2309021 14.35195251 31.2399292 15.19845581 C31.26192504 17.91279002 31.2473692 20.62549315 31.23046875 23.33984375 C31.23383717 25.22787285 31.23869001 27.11589983 31.2449646 29.00392151 C31.25233643 32.96091354 31.24162171 36.91734117 31.21826172 40.87426758 C31.18979319 45.94329299 31.20616361 51.01099371 31.23612404 56.07997036 C31.25420534 59.97913057 31.24843484 63.87797756 31.23548508 67.77714729 C31.23215235 69.64583557 31.23623347 71.51455239 31.24788284 73.38320732 C31.26060332 75.9976907 31.2411987 78.61004052 31.21337891 81.22436523 C31.22350006 81.99491745 31.23362122 82.76546967 31.24404907 83.55937195 C31.16604737 87.52219267 30.70737016 89.35069252 28.24008179 92.51098633 C24.7464123 95.15084799 22.60449891 95.16261576 18.25390625 95.16015625 C17.21689575 95.16377419 17.21689575 95.16377419 16.15893555 95.16746521 C14.70322917 95.16648956 13.24748439 95.15316289 11.79199219 95.12817383 C9.57227715 95.09384081 7.35654365 95.10752843 5.13671875 95.12695312 C3.71743109 95.12005414 2.29815363 95.11038126 0.87890625 95.09765625 C-0.40371094 95.08677979 -1.68632812 95.07590332 -3.0078125 95.06469727 C-7.14572246 94.42036052 -8.57928042 93.58091671 -11.43359375 90.53125 C-11.93246745 87.57782657 -12.10875695 85.198548 -12.06469727 82.24609375 C-12.07543022 80.99664474 -12.07543022 80.99664474 -12.08638 79.72195435 C-12.10327999 76.97032722 -12.08385762 74.22032641 -12.0625 71.46875 C-12.06332858 69.55590683 -12.06578756 67.64306373 -12.06980896 65.73022461 C-12.07266785 61.72194987 -12.05795693 57.71423364 -12.03051758 53.70605469 C-11.99643465 48.56756935 -12.00245214 43.43008282 -12.02118015 38.29154968 C-12.03174756 34.34183424 -12.02281468 30.3923513 -12.00779533 26.44265747 C-12.00261116 24.54803152 -12.00309818 22.65338131 -12.00934029 20.75875854 C-12.01478939 18.11077648 -11.99442805 15.46422528 -11.96704102 12.81640625 C-11.97356689 12.03290802 -11.98009277 11.24940979 -11.98681641 10.44216919 C-11.92524517 6.94208707 -11.70767717 4.9054299 -9.61300659 2.04577637 C-6.51795158 -0.10505175 -3.63825142 -0.04297368 0 0 Z " fill="#5669FF" transform="translate(359.43359375,283.46875)"/>
<path d="M0 0 C0.69134033 -0.00145523 1.38268066 -0.00291046 2.0949707 -0.00440979 C3.55066154 -0.00275634 5.00637087 0.00874293 6.46191406 0.02954102 C8.68109933 0.0585102 10.8978941 0.05013801 13.1171875 0.03710938 C25.71105007 0.09246252 25.71105007 0.09246252 29.6875 3.49609375 C30.20115157 6.43820256 30.37193031 8.81193985 30.33447266 11.75952148 C30.34323425 12.60209503 30.35199585 13.44466858 30.36102295 14.31277466 C30.38305698 17.10226717 30.36844926 19.89017845 30.3515625 22.6796875 C30.35492981 24.61638188 30.35978172 26.55307421 30.36605835 28.48976135 C30.37343536 32.55107723 30.36269871 36.61184365 30.33935547 40.6730957 C30.31088623 45.88011962 30.32725471 51.08585403 30.35721779 56.29283047 C30.37528462 60.29317441 30.36953522 64.2932126 30.35657883 68.29356575 C30.35324213 70.21332006 30.35734115 72.13310208 30.36897659 74.05282402 C30.38167321 76.73705415 30.36232538 79.41919691 30.33447266 82.10327148 C30.34459381 82.8976915 30.35471497 83.69211151 30.36514282 84.51060486 C30.2909559 88.36853657 30.036485 90.1223732 27.36117554 92.98730469 C23.87782759 94.95300218 21.3652957 95.02866269 17.375 95.0625 C16.68365967 95.06869858 15.99231934 95.07489716 15.2800293 95.08128357 C13.82439577 95.08835922 12.36868093 95.08524703 10.91308594 95.07250977 C8.69314013 95.05862902 6.47740355 95.09275164 4.2578125 95.13085938 C2.83854064 95.1318106 1.41926354 95.12995154 0 95.125 C-1.28261719 95.1257251 -2.56523437 95.1264502 -3.88671875 95.12719727 C-8.3159785 94.31123116 -9.55615654 93.02663167 -12.3125 89.49609375 C-12.80734895 86.53341015 -12.99831766 84.14658932 -12.95947266 81.18920898 C-12.96823425 80.36585052 -12.97699585 79.54249207 -12.98602295 78.69418335 C-13.00797812 75.98047746 -12.9934801 73.26840909 -12.9765625 70.5546875 C-12.97993144 68.66569201 -12.98478472 66.77669864 -12.99105835 64.88771057 C-12.99842412 60.9324984 -12.98773255 56.97785147 -12.96435547 53.02270508 C-12.93584823 47.95248983 -12.95228571 42.88359673 -12.98221779 37.81342983 C-13.00028214 33.91431201 -12.99453706 30.01550794 -12.98157883 26.11638069 C-12.97824344 24.24686591 -12.98233658 22.37732263 -12.99397659 20.50784111 C-13.00667355 17.89565389 -12.98732728 15.28561135 -12.95947266 12.67358398 C-12.96959381 11.90100754 -12.97971497 11.12843109 -12.99014282 10.33244324 C-12.91481302 6.5204322 -12.63498053 4.83984059 -9.98617554 2.01635742 C-6.49165573 0.02935809 -4.00912108 -0.00579207 0 0 Z " fill="#407BFF" transform="translate(303.3125,283.50390625)"/>
<path d="M0 0 C13.90110463 -0.56520975 25.4597763 6.36630005 35.46777344 15.50585938 C48.61196878 28.32333475 53.73814143 43.84557253 54.25 61.6875 C53.99207386 79.81267335 48.16794534 95.25181027 35.234375 108.0859375 C26.05491887 116.64935999 12.7668846 124 0 124 C-0.495 117.565 -0.495 117.565 -1 111 C0.753125 110.484375 2.50625 109.96875 4.3125 109.4375 C19.74351176 104.25747838 29.18406173 94.72668072 36.43359375 80.5859375 C37.87389124 77.28869787 38.61144537 74.55719027 39 71 C38.37770508 70.97494385 37.75541016 70.9498877 37.11425781 70.92407227 C23.07203945 70.35594215 9.03476688 69.72968368 -5 69 C-5 68.67 -5 68.34 -5 68 C-3.35 68 -1.7 68 0 68 C0 64.04 0 60.08 0 56 C28.10638298 55.80851064 28.10638298 55.80851064 41 57 C35.69075221 39.85225926 29.61913707 26.76564927 13 18 C8.08799225 15.89758423 3.18046529 14.29511632 -2 13 C-2 26.86 -2 40.72 -2 55 C-2.33 55 -2.66 55 -3 55 C-3 40.81 -3 26.62 -3 12 C-2.01 12 -1.02 12 0 12 C0 8.04 0 4.08 0 0 Z " fill="#2796FF" transform="translate(163,158)"/>
<path d="M0 0 C0.05395478 1.62463842 0.09277195 3.24978541 0.125 4.875 C0.14820313 5.77992188 0.17140625 6.68484375 0.1953125 7.6171875 C0 10 0 10 -2 12 C-4.45288183 12.80787039 -6.89294954 13.54513198 -9.375 14.25 C-19.9847662 17.42554211 -29.48705185 21.82241626 -38 29 C-39.20269531 29.98613281 -39.20269531 29.98613281 -40.4296875 30.9921875 C-52.4352951 41.24621709 -60.20894204 54.07401173 -65 69 C-65.30164063 69.86753906 -65.60328125 70.73507813 -65.9140625 71.62890625 C-71.79079526 90.93424798 -67.83445099 112.27536015 -59 130 C-58.25744901 131.14386496 -57.49113693 132.27319389 -56.6875 133.375 C-54.6266281 136.58080074 -54.34927461 138.25832901 -55 142 C-56.625 144.375 -56.625 144.375 -59 146 C-62 146.5 -62 146.5 -65 146 C-76.39713386 136.34064695 -80.85767303 117.19241378 -83 103 C-83.27634067 99.59794658 -83.33489005 96.22474429 -83.3125 92.8125 C-83.30686035 91.89758789 -83.3012207 90.98267578 -83.29541016 90.04003906 C-82.81756974 63.04442093 -71.24391468 39.40156576 -52.10546875 20.73828125 C-42.36033528 11.88164685 -31.33728861 6.3216167 -19 2 C-18.12214844 1.66097656 -17.24429688 1.32195312 -16.33984375 0.97265625 C-11.17623808 -0.94930332 -5.20589369 -2.60294684 0 0 Z " fill="#11B2FF" transform="translate(142,128)"/>
<path d="M0 0 C0.73714737 -0.00478363 1.47429474 -0.00956726 2.23377991 -0.01449585 C3.78958271 -0.01789129 5.3454572 -0.00871327 6.90112305 0.01220703 C9.27490524 0.03894703 11.64394403 0.01247502 14.01757812 -0.01953125 C15.53256247 -0.01622633 17.04754387 -0.00981838 18.5625 0 C19.26785385 -0.01012115 19.9732077 -0.02024231 20.69993591 -0.03067017 C24.22316076 0.05252946 26.30094154 0.63474197 29.29492188 2.51391602 C32.33079519 7.17279725 32.04650012 11.27892013 31.9765625 16.73046875 C31.97897446 17.80151352 31.98138641 18.87255829 31.98387146 19.97605896 C31.98289347 22.23627431 31.96951155 24.49651375 31.94458008 26.7565918 C31.91024009 30.21811111 31.92393296 33.67708206 31.94335938 37.13867188 C31.93646182 39.33594838 31.92679026 41.53321829 31.9140625 43.73046875 C31.91902237 44.76595352 31.92398224 45.80143829 31.92909241 46.86830139 C31.81155076 54.02765258 31.81155076 54.02765258 29.43725586 57.28491211 C24.19529265 60.74464457 18.3716316 59.96330797 12.28173828 60.01416016 C10.83268124 60.03068193 9.38370444 60.05792282 7.93505859 60.09619141 C5.83778955 60.15126926 3.74242837 60.17287953 1.64453125 60.1875 C-0.23733887 60.217229 -0.23733887 60.217229 -2.15722656 60.24755859 C-5.63625568 59.66674834 -7.92793505 58.89419931 -10.52429199 56.43887329 C-12.96845683 52.59336699 -12.4577059 48.04059519 -12.37890625 43.6328125 C-12.37990326 42.5641394 -12.38090027 41.49546631 -12.38192749 40.39440918 C-12.37725328 38.13835195 -12.35783826 35.88228363 -12.32470703 33.62646484 C-12.27750442 30.17580792 -12.28358907 26.72824167 -12.296875 23.27734375 C-12.28572103 21.08331493 -12.27150098 18.88929912 -12.25390625 16.6953125 C-12.25572906 15.66498901 -12.25755188 14.63466553 -12.25942993 13.57312012 C-12.17540147 9.32189266 -11.99758794 6.36103739 -10.09301758 2.51611328 C-6.80213327 0.01889928 -3.97831926 -0.05692173 0 0 Z " fill="#3689FF" transform="translate(245.65234375,318.3359375)"/>
<path d="M0 0 C0.28116788 6.61518288 0.47244578 13.22880428 0.60424805 19.84863281 C0.65923783 22.09531205 0.73406167 24.34160359 0.82983398 26.58691406 C1.68965049 47.27768569 1.68965049 47.27768569 -3.7552948 53.70343018 C-6.03330513 55.97118496 -8.50817138 57.97281858 -11 60 C-12.60491426 61.86006465 -14.1744083 63.75200426 -15.6875 65.6875 C-19.15112492 69.99362828 -22.74653426 74.13855842 -26.46875 78.22265625 C-28.06839039 79.93262428 -28.06839039 79.93262428 -29 82 C-29.99 82 -30.98 82 -32 82 C-33.51080789 79.95666972 -34.79191987 77.99770924 -36.0625 75.8125 C-36.41376953 75.23435547 -36.76503906 74.65621094 -37.12695312 74.06054688 C-43.75620242 62.97002585 -44.9547545 49.34931152 -42.31640625 36.73046875 C-37.48949439 22.7304215 -28.73931438 11.64032284 -15.59765625 4.73828125 C-5.29321561 0 -5.29321561 0 0 0 Z " fill="#FBFDFF" transform="translate(147,170)"/>
<path d="M0 0 C2.58526446 0.20415939 5.16259504 0.34292975 7.75341797 0.45068359 C14.15411432 0.73594383 20.45668424 1.24796335 26.78857422 2.22021484 C27.21897619 7.41692013 25.86571017 10.99880825 23.41357422 15.47021484 C23.05489258 16.12699219 22.69621094 16.78376953 22.32666016 17.46044922 C15.8553244 28.78390047 5.96141396 37.11453754 -6.44189453 41.31396484 C-17.0335554 44.04729668 -26.28274966 44.11404116 -36.71142578 40.97021484 C-37.73586792 40.66374023 -37.73586792 40.66374023 -38.78100586 40.35107422 C-42.84596893 39.01143238 -45.45847099 37.50690577 -48.21142578 34.22021484 C-46.93080093 32.51271505 -45.59375021 30.84647888 -44.21142578 29.22021484 C-43.55142578 29.22021484 -42.89142578 29.22021484 -42.21142578 29.22021484 C-41.99615234 28.69556641 -41.78087891 28.17091797 -41.55908203 27.63037109 C-39.29348472 23.57856373 -36.07481574 20.24982571 -32.99023438 16.80566406 C-30.41236384 13.89828559 -28.20182538 11.20422655 -26.19189453 7.85693359 C-19.8251728 -2.47726105 -10.9150766 -0.8634122 0 0 Z " fill="#FBFDFF" transform="translate(175.21142578125,226.77978515625)"/>
<path d="M0 0 C0.84595734 -0.00556915 1.69191467 -0.01113831 2.56350708 -0.01687622 C3.48906403 -0.00766144 4.41462097 0.00155334 5.3682251 0.01104736 C6.34608978 0.00900299 7.32395447 0.00695862 8.33145142 0.00485229 C11.58120143 0.00183323 14.83044886 0.02038064 18.08013916 0.03936768 C20.35245641 0.04242831 22.62477554 0.04430211 24.89709473 0.04504395 C29.67888498 0.04965681 34.46050777 0.06410169 39.24224854 0.08624268 C45.3056675 0.11420509 51.36895298 0.12542184 57.43243027 0.12992477 C63.27334972 0.13514933 69.11423733 0.14965613 74.95513916 0.16436768 C76.58376514 0.16718876 76.58376514 0.16718876 78.24529266 0.17006683 C93.13652631 0.2033181 107.97357696 0.6102877 122.84576416 1.36749268 C122.84576416 5.32749268 122.84576416 9.28749268 122.84576416 13.36749268 C134.39576416 13.36749268 145.94576416 13.36749268 157.84576416 13.36749268 C157.84576416 13.69749268 157.84576416 14.02749268 157.84576416 14.36749268 C137.07075253 14.46090992 116.29577551 14.5314591 95.5205965 14.57474136 C85.87443842 14.59537172 76.22841078 14.62350137 66.58233643 14.66925049 C58.17538323 14.70910375 49.7685245 14.73492204 41.36147946 14.74384665 C36.90945472 14.74906397 32.45770026 14.76133633 28.0057621 14.7904129 C23.8155852 14.8175582 19.62579 14.82593952 15.43553352 14.8199234 C13.8976204 14.82102404 12.35969455 14.82898344 10.82185745 14.84431458 C8.72118825 14.86422989 6.6219583 14.85942791 4.52125549 14.84851074 C3.34596944 14.85219791 2.17068338 14.85588509 0.9597826 14.85968399 C-2.83509834 14.25987783 -4.50471919 13.11546964 -7.15423584 10.36749268 C-7.98209951 4.468964 -7.98209951 4.468964 -5.88262558 1.67561722 C-3.74823085 0.0602095 -2.65673889 -0.00530614 0 0 Z " fill="#426DFF" transform="translate(242.15423583984375,42.63250732421875)"/>
<path d="M0 0 C17.1588333 -0.0694027 34.31761067 -0.1229611 51.47655201 -0.15543652 C59.44348232 -0.17091521 67.4103239 -0.19202376 75.37719727 -0.22631836 C82.31992691 -0.25619017 89.26259231 -0.27556771 96.20538443 -0.28226548 C99.88265318 -0.28618154 103.5597381 -0.29540535 107.23694801 -0.31719017 C111.33879426 -0.34129426 115.44031953 -0.34197143 119.54223633 -0.34057617 C120.76574799 -0.351362 121.98925964 -0.36214783 123.24984741 -0.3732605 C124.36463974 -0.36913651 125.47943207 -0.36501251 126.62800598 -0.36076355 C127.59865399 -0.36352893 128.56930201 -0.36629431 129.56936359 -0.36914349 C132 0 132 0 133.80840588 1.30379772 C135.82580924 4.17551731 135.42171335 6.62629322 135 10 C132.76536054 12.30595887 131.37801784 12.95050233 128.18082047 13.36914349 C127.0857304 13.36637811 125.99064034 13.36361273 124.86236572 13.36076355 C123.60315811 13.36488754 122.3439505 13.36901154 121.04658508 13.3732605 C119.65377593 13.36264375 118.26096894 13.35173933 116.86816406 13.34057617 C115.3996126 13.33972984 113.93105988 13.34020517 112.46250916 13.34190369 C108.47722476 13.34276481 104.49221096 13.32512015 100.50698948 13.30418181 C96.34164869 13.28543456 92.17630177 13.28366612 88.01092529 13.28010559 C80.12386272 13.27077938 72.23692483 13.24615782 64.34991717 13.21605712 C55.37056907 13.18253103 46.39121504 13.16603161 37.41181993 13.15097082 C18.94114259 13.11960876 0.47058132 13.06683707 -18 13 C-18 12.67 -18 12.34 -18 12 C-12.06 12 -6.12 12 0 12 C0 8.04 0 4.08 0 0 Z " fill="#2394FF" transform="translate(142,391)"/>
<path d="M0 0 C4.46570449 -0.0743839 8.93107684 -0.12871171 13.3972168 -0.16479492 C14.91518438 -0.17984353 16.43310876 -0.20028738 17.95092773 -0.22631836 C20.13796677 -0.26287653 22.32442896 -0.27976523 24.51171875 -0.29296875 C25.82615967 -0.3086792 27.14060059 -0.32438965 28.49487305 -0.34057617 C32.40194285 0.03905484 34.03177828 0.44885857 37 3 C37.51365157 5.94210881 37.68443031 8.3158461 37.64697266 11.26342773 C37.65573425 12.10600128 37.66449585 12.94857483 37.67352295 13.81668091 C37.69555698 16.60617342 37.68094926 19.3940847 37.6640625 22.18359375 C37.66742981 24.12028813 37.67228172 26.05698046 37.67855835 27.9936676 C37.68593536 32.05498348 37.67519871 36.1157499 37.65185547 40.17700195 C37.62338623 45.38402587 37.63975471 50.58976028 37.66971779 55.79673672 C37.68778462 59.79708066 37.68203522 63.79711885 37.66907883 67.797472 C37.66574213 69.71722631 37.66984115 71.63700833 37.68147659 73.55673027 C37.69417321 76.2409604 37.67482538 78.92310316 37.64697266 81.60717773 C37.65709381 82.40159775 37.66721497 83.19601776 37.67764282 84.01451111 C37.60350255 87.87001711 37.34599106 89.62795494 34.67863464 92.49617004 C31.12090778 94.49353697 28.57833919 94.4554317 24.51171875 94.390625 C23.80852005 94.38496521 23.10532135 94.37930542 22.3808136 94.37347412 C20.14899752 94.35119769 17.91882539 94.30102373 15.6875 94.25 C14.16864309 94.22992343 12.64976084 94.21167468 11.13085938 94.1953125 C7.42004455 94.15136357 3.7101829 94.08239921 0 94 C0 93.34 0 92.68 0 92 C3.63 92 7.26 92 11 92 C10.67 88.04 10.34 84.08 10 80 C14.62 80 19.24 80 24 80 C23.67 58.22 23.34 36.44 23 14 C18.71 13.67 14.42 13.34 10 13 C10.33 9.37 10.66 5.74 11 2 C7.37 2 3.74 2 0 2 C0 1.34 0 0.68 0 0 Z " fill="#4372FF" transform="translate(296,284)"/>
<path d="M0 0 C13.22484991 1.65310624 24.22246037 7.69906843 32.703125 18.0859375 C38.25980157 25.8596719 41.89991466 34.51324256 43 44 C28.60714374 44.44059764 14.3445711 43.09814898 0 42 C0 28.14 0 14.28 0 0 Z " fill="#FBFDFF" transform="translate(161,171)"/>
<path d="M0 0 C2.62697064 -0.22137393 5.00893964 -0.28162025 7.625 -0.1875 C8.33140625 -0.17396484 9.0378125 -0.16042969 9.765625 -0.14648438 C11.51074128 -0.1111104 13.25546608 -0.05730221 15 0 C15 3.96 15 7.92 15 12 C18.63 12 22.26 12 26 12 C26 12.33 26 12.66 26 13 C21.05 13 16.1 13 11 13 C11 34.78 11 56.56 11 79 C12.32 79 13.64 79 15 79 C15 82.96 15 86.92 15 91 C12.73122896 91.24875561 10.45980265 91.47339246 8.1875 91.6875 C6.92292969 91.81511719 5.65835937 91.94273437 4.35546875 92.07421875 C1 92 1 92 -0.68644714 91.00708008 C-2.76363126 87.83318811 -2.40788238 84.48232294 -2.37231445 80.8125 C-2.37779045 79.5608606 -2.37779045 79.5608606 -2.38337708 78.28393555 C-2.39149098 75.52241743 -2.37786559 72.76148456 -2.36328125 70 C-2.36276274 68.08333334 -2.36328008 66.16666614 -2.36479187 64.25 C-2.36470211 60.23169015 -2.35426474 56.21358077 -2.33618164 52.1953125 C-2.31349438 47.04011621 -2.31294997 41.88521294 -2.31969929 36.72998047 C-2.32303803 32.77178332 -2.31641095 28.81365319 -2.30657005 24.85546875 C-2.30271614 22.95443065 -2.30157063 21.0533851 -2.3031559 19.15234375 C-2.30352605 16.49725091 -2.29092052 13.84253615 -2.2746582 11.1875 C-2.27713562 10.39883545 -2.27961304 9.6101709 -2.28216553 8.79760742 C-2.24495091 4.99774888 -2.1598156 3.23972339 0 0 Z " fill="#4769FF" transform="translate(350,285)"/>
<path d="M0 0 C29.37 0 58.74 0 89 0 C89 3.96 89 7.92 89 12 C77.14859867 12.76815546 65.36692737 13.13988114 53.4921875 13.09765625 C51.90365647 13.09578337 50.31512484 13.0943636 48.72659302 13.09336853 C44.61356922 13.0896117 40.50058266 13.07984285 36.38757324 13.06866455 C32.1633352 13.05830046 27.93909094 13.05383932 23.71484375 13.04882812 C15.47654379 13.03821192 7.23828086 13.02067363 -1 13 C-0.67 8.71 -0.34 4.42 0 0 Z " fill="#0FADFF" transform="translate(53,391)"/>
<path d="M0 0 C1.36564181 -0.02363396 2.73192986 -0.01948363 4.09753418 0.00622559 C4.84417831 0.00067657 5.59082245 -0.00487244 6.36009216 -0.0105896 C8.82986494 -0.02240738 11.29781145 0.00190817 13.76745605 0.02770996 C15.48233964 0.02942057 17.19722585 0.02935588 18.91210938 0.02758789 C22.50688681 0.02924233 26.10104152 0.04796238 29.69567871 0.07946777 C34.30620786 0.11914618 38.91592097 0.12351395 43.52658844 0.11600494 C47.06792696 0.1129371 50.6090816 0.12504909 54.15037537 0.14213562 C55.85044705 0.14917284 57.55053957 0.15228928 59.25062561 0.15144348 C61.62576035 0.15323894 63.99991279 0.17459771 66.37487793 0.20153809 C67.07938583 0.19860748 67.78389374 0.19567688 68.50975037 0.19265747 C71.40132124 0.24332881 73.29038231 0.29737552 75.66918945 2.02661133 C76.9943895 4.00736165 77.16921019 5.24764365 77.17370605 7.62145996 C77.19304199 8.30208496 77.21237793 8.98270996 77.2322998 9.68395996 C76.73620605 11.62145996 76.73620605 11.62145996 75.1541748 13.21928406 C71.84294771 15.13945893 69.3713134 14.9956324 65.5526123 14.99377441 C64.47872757 14.99925041 64.47872757 14.99925041 63.38314819 15.00483704 C61.02142464 15.01292957 58.66039003 14.99934377 56.29870605 14.98474121 C54.65490723 14.98422245 53.01110778 14.98474078 51.36730957 14.98625183 C47.92409998 14.98616217 44.48112482 14.97574452 41.03796387 14.9576416 C36.62610539 14.9349546 32.21458936 14.93441094 27.8026886 14.94115925 C24.40890463 14.94450196 21.01519862 14.93786344 17.62142944 14.92803001 C15.99474496 14.92418295 14.36805179 14.92302776 12.74136353 14.92461586 C10.4673411 14.92498704 8.19375641 14.9123518 5.9197998 14.89611816 C4.62614502 14.89151077 3.33249023 14.88690338 1.99963379 14.88215637 C-1.05929319 14.63779635 -2.81134575 14.43436245 -5.26379395 12.62145996 C-6.32163902 8.88374069 -6.63395523 6.58330359 -5.2277832 2.92944336 C-3.26379395 0.62145996 -3.26379395 0.62145996 0 0 Z " fill="#426DFF" transform="translate(298.2637939453125,196.3785400390625)"/>
<path d="M0 0 C1.08851509 -0.00788544 1.08851509 -0.00788544 2.19902039 -0.01593018 C4.59318691 -0.02911334 6.98668631 -0.02039846 9.38085938 -0.01025391 C11.04707975 -0.01227514 12.71329926 -0.01518698 14.3795166 -0.01895142 C17.86979605 -0.02337247 21.35984502 -0.01695085 24.85009766 -0.00292969 C29.32257687 0.0141622 33.794516 0.00431983 38.2669754 -0.01364708 C41.70709294 -0.02449089 45.14708257 -0.02103586 48.58720398 -0.0132637 C50.23622196 -0.01126334 51.88525159 -0.01371523 53.53425598 -0.02070236 C55.83955622 -0.02832682 58.14398348 -0.01669962 60.44921875 0 C61.76063843 0.00238678 63.07205811 0.00477356 64.42321777 0.00723267 C67.90100797 0.40853841 69.35290111 0.84490982 71.72460938 3.38818359 C72.28041184 7.20932551 72.44283713 9.39079102 70.14807129 12.57749939 C66.82190598 15.06263644 64.58005804 14.90210597 60.44921875 14.92163086 C59.36070366 14.93455421 59.36070366 14.93455421 58.25019836 14.94773865 C55.85588732 14.97040747 53.46274576 14.96365926 51.06835938 14.95458984 C49.40213676 14.95982481 47.73591712 14.96610082 46.06970215 14.97337341 C42.5793665 14.98377905 39.08943851 14.97921367 35.59912109 14.96459961 C31.12635284 14.94740487 26.65486835 14.9709135 22.18224335 15.00608921 C18.74208058 15.02804914 15.30222572 15.02662536 11.86201477 15.0183239 C10.21298311 15.01750372 8.56392898 15.02437994 6.91496277 15.03909492 C4.60917206 15.05651787 2.30569748 15.0420217 0 15.01928711 C-1.31141968 15.01832535 -2.62283936 15.01736359 -3.97399902 15.01637268 C-7.27539062 14.38818359 -7.27539062 14.38818359 -9.69885254 12.04405212 C-11.61367209 8.81830767 -11.91691657 7.07695777 -11.27539062 3.38818359 C-7.89499415 -0.16136358 -4.73106568 0.00861052 0 0 Z " fill="#426DFF" transform="translate(303.275390625,165.61181640625)"/>
<path d="M0 0 C10.39008316 -0.02343999 20.78015977 -0.04107303 31.17026424 -0.05181217 C35.99771514 -0.05697316 40.8251476 -0.06394308 45.65258789 -0.07543945 C66.45950567 -0.12373358 87.21666978 -0.13802172 108 1 C108 4.63 108 8.26 108 12 C96.73270573 13.02431928 85.56115946 13.13138781 74.2578125 13.09765625 C72.39452147 13.09578648 70.53122994 13.09436523 68.66793823 13.09336853 C63.81177362 13.08958729 58.95563989 13.07979562 54.0994873 13.06866455 C49.12492287 13.05835489 44.15035334 13.05385063 39.17578125 13.04882812 C29.45050742 13.0381685 19.7252563 13.02114624 10 13 C10 12.67 10 12.34 10 12 C14.29 12 18.58 12 23 12 C23 8.37 23 4.74 23 1 C15.41 1 7.82 1 0 1 C0 0.67 0 0.34 0 0 Z " fill="#2E86FF" transform="translate(199,92)"/>
<path d="M0 0 C0.74664413 -0.00525696 1.49328827 -0.01051392 2.26255798 -0.01593018 C4.73189176 -0.02913966 7.20058148 -0.02038908 9.66992188 -0.01025391 C11.38480758 -0.01227438 13.09969244 -0.01518559 14.8145752 -0.01895142 C18.4091815 -0.02337604 22.00356421 -0.01693934 25.59814453 -0.00292969 C30.20862881 0.01416238 34.81858921 0.00432193 39.42905426 -0.01364708 C42.97035681 -0.02448124 46.51153491 -0.02104029 50.05284119 -0.0132637 C51.75292523 -0.01126067 53.45302053 -0.01372458 55.15309143 -0.02070236 C57.52814723 -0.02831093 59.90235148 -0.0167218 62.27734375 0 C63.33410561 -0.00910904 63.33410561 -0.00910904 64.41221619 -0.0184021 C67.24466127 0.0185931 69.19114569 0.08650186 71.57531738 1.69369507 C73.38142976 4.57179144 72.99066556 7.10290917 72.63867188 10.38818359 C71.57531738 12.0816803 71.57531738 12.0816803 69.63867188 13.38818359 C67.10384049 13.689276 64.81318436 13.80843978 62.27734375 13.79223633 C61.15737755 13.8025312 61.15737755 13.8025312 60.01478577 13.81303406 C57.54547133 13.83134346 55.07678966 13.82745924 52.60742188 13.82177734 C50.89253532 13.82633685 49.1776506 13.83164173 47.46276855 13.83766174 C43.86816994 13.84660072 40.27379341 13.84416048 36.67919922 13.83422852 C32.06860744 13.8227318 27.45878073 13.84295665 22.84828949 13.87214565 C19.30697751 13.89047442 15.76585005 13.89022199 12.22450256 13.88450813 C10.52440822 13.88435454 8.82430167 13.89043007 7.12425232 13.90279961 C4.74901027 13.91764751 2.37519675 13.90708035 0 13.88989258 C-0.7045079 13.89956055 -1.40901581 13.90922852 -2.13487244 13.91918945 C-5.31664841 13.87087841 -6.94504414 13.7836829 -9.29797363 11.54823303 C-10.73650299 8.62607061 -10.77170714 6.6028192 -10.36132812 3.38818359 C-7.85627822 -0.52087043 -4.20292066 -0.03622819 0 0 Z " fill="#436DFF" transform="translate(302.361328125,134.61181640625)"/>
<path d="M0 0 C2.64495285 1.10081842 4.57127823 2.65486521 6.82421875 4.42578125 C17.45694154 12.55064804 30.61735212 18.08656997 44.07421875 17.86328125 C46.02215137 17.8719526 47.97007016 17.88402452 49.91796875 17.8984375 C55.63723652 17.9300066 61.35510299 17.91052865 67.07421875 17.86328125 C66.42606201 18.1358374 65.77790527 18.40839355 65.11010742 18.68920898 C64.43826416 19.07665283 63.7664209 19.46409668 63.07421875 19.86328125 C62.40601077 22.71005657 62.40601077 22.71005657 62.38671875 25.92578125 C62.14245696 31.79504304 62.14245696 31.79504304 61.07421875 32.86328125 C36.78820046 35.03343723 15.79918343 28.68919107 -3.92578125 14.86328125 C-4.69535156 14.36054688 -5.46492188 13.8578125 -6.2578125 13.33984375 C-8.80330029 11.08646112 -8.84088946 9.07606499 -9.08203125 5.80859375 C-8.92578125 3.86328125 -8.92578125 3.86328125 -7.42578125 1.30078125 C-4.71890188 -0.25567439 -3.07220288 -0.63762701 0 0 Z " fill="#1CA8FF" transform="translate(100.92578125,281.13671875)"/>
<path d="M0 0 C9.38155482 -0.02344631 18.76309915 -0.04107609 28.14467716 -0.05181217 C32.50360735 -0.05697184 36.86251711 -0.06393917 41.22143555 -0.07543945 C60.17297194 -0.12417042 79.07286283 -0.1191501 98 1 C98 4.63 98 8.26 98 12 C87.80953027 12.93050419 77.76183974 13.13235084 67.54296875 13.09765625 C65.902451 13.09578615 64.26193269 13.09436505 62.62141418 13.09336853 C58.34885049 13.08958992 54.07632197 13.07980065 49.80377197 13.06866455 C45.42582678 13.05834908 41.04787578 13.05384942 36.66992188 13.04882812 C28.11326529 13.03817316 19.55663705 13.02115427 11 13 C11 12.67 11 12.34 11 12 C13.31 12 15.62 12 18 12 C18 8.37 18 4.74 18 1 C12.06 1 6.12 1 0 1 C0 0.67 0 0.34 0 0 Z " fill="#2394FF" transform="translate(124,92)"/>
<path d="M0 0 C1.00520187 -0.00043808 2.01040375 -0.00087616 3.04606628 -0.00132751 C6.36847356 0.00076244 9.69037619 0.02410375 13.01269531 0.04760742 C15.31626103 0.05320263 17.61983032 0.05747308 19.92340088 0.06047058 C25.98648941 0.07192522 32.04936237 0.10139799 38.11236572 0.13458252 C44.29916467 0.1652699 50.48599845 0.17897309 56.67285156 0.1940918 C68.8122692 0.22626688 80.95152683 0.27747093 93.09082031 0.34057617 C93.09082031 0.67057617 93.09082031 1.00057617 93.09082031 1.34057617 C81.87082031 1.34057617 70.65082031 1.34057617 59.09082031 1.34057617 C59.09082031 5.30057617 59.09082031 9.26057617 59.09082031 13.34057617 C44.22708004 14.07448043 29.37752436 14.60288457 14.49487305 14.69067383 C12.3997105 14.70755029 10.30461216 14.73523046 8.2097168 14.77270508 C5.12422168 14.82713133 2.04000962 14.84924954 -1.04589844 14.86401367 C-1.98116867 14.88668304 -2.9164389 14.90935242 -3.88005066 14.93270874 C-10.26988277 14.91169017 -10.26988277 14.91169017 -13.52563477 12.00317383 C-14.90917969 9.34057617 -14.90917969 9.34057617 -14.90917969 6.21557617 C-12.40988217 -0.96990419 -6.5470603 -0.0744304 0 0 Z " fill="#426DFF" transform="translate(305.9091796875,389.659423828125)"/>
<path d="M0 0 C11.92618991 -0.06946775 23.85233179 -0.12279494 35.77868271 -0.15543652 C41.31639495 -0.17110173 46.85396891 -0.19235579 52.39160156 -0.22631836 C57.73433036 -0.25888103 63.07692604 -0.27684657 68.4197464 -0.28463173 C70.45953721 -0.29018078 72.49932063 -0.30101654 74.53905487 -0.31719017 C77.39305955 -0.3389232 80.24651201 -0.34196864 83.10058594 -0.34057617 C83.94647278 -0.351362 84.79235962 -0.36214783 85.66387939 -0.3732605 C89.00153277 -0.35560472 91.53283214 -0.24062251 94.52886963 1.30253601 C96 3 96 3 96.4375 6.5 C96 10 96 10 94.92424011 11.69746399 C92.02940669 13.65700363 89.14828042 13.39327172 85.7746582 13.34057617 C85.04270233 13.34101425 84.31074646 13.34145233 83.55661011 13.34190369 C81.13772895 13.33981398 78.71954129 13.31647515 76.30078125 13.29296875 C74.62355427 13.28737342 72.94632238 13.28310303 71.26908875 13.28010559 C66.85487325 13.26865178 62.44095395 13.23918011 58.02685547 13.20599365 C53.5225017 13.17530425 49.01810006 13.16160268 44.51367188 13.14648438 C35.67565113 13.11431083 26.83785019 13.06310808 18 13 C18 9.04 18 5.08 18 1 C12.06 1 6.12 1 0 1 C0 0.67 0 0.34 0 0 Z " fill="#2394FF" transform="translate(124,43)"/>
<path d="M0 0 C4.95 0 9.9 0 15 0 C15 21.78 15 43.56 15 66 C10.05 66 5.1 66 0 66 C0 44.22 0 22.44 0 0 Z " fill="#F5F7FF" transform="translate(305,298)"/>
<path d="M0 0 C0.66 0.33 1.32 0.66 2 1 C3.61186728 18.19738393 3.61186728 18.19738393 0.265625 24.015625 C-2.34629407 26.38854494 -4.98016071 28.17440446 -8 30 C-9.10126954 30.76379441 -10.19749174 31.53490771 -11.2890625 32.3125 C-24.27164573 41.36433824 -38.37317514 46.69257678 -54 49 C-55.32 48.67 -56.64 48.34 -58 48 C-57.67 44.04 -57.34 40.08 -57 36 C-55.71738281 35.58105469 -54.43476563 35.16210938 -53.11328125 34.73046875 C-32.52784667 27.85255913 -12.08969612 19.17675937 0 0 Z " fill="#2796FF" transform="translate(220,265)"/>
<path d="M0 0 C4.62 0 9.24 0 14 0 C14 21.45 14 42.9 14 65 C9.38 65 4.76 65 0 65 C0 43.55 0 22.1 0 0 Z " fill="#FCFDFF" transform="translate(362,298)"/>
<path d="M0 0 C7.42579352 -0.02353633 14.85158302 -0.04111936 22.27740574 -0.05181217 C25.72832654 -0.05695324 29.1792212 -0.06388334 32.63012695 -0.07543945 C49.44826793 -0.13030727 66.20451149 0.07359006 83 1 C83 4.63 83 8.26 83 12 C66.67487719 12.85819854 50.40824195 13.12723319 34.0625 13.0625 C31.80664164 13.05746496 29.55078217 13.05290567 27.29492188 13.04882812 C21.86325622 13.03800417 16.43163366 13.02143126 11 13 C11 12.67 11 12.34 11 12 C15.62 12 20.24 12 25 12 C25 8.37 25 4.74 25 1 C16.75 1 8.5 1 0 1 C0 0.67 0 0.34 0 0 Z " fill="#426DFF" transform="translate(282,92)"/>
<path d="M0 0 C7.35064476 -0.07404948 14.70107335 -0.12855489 22.05200195 -0.16479492 C24.55366802 -0.17989944 27.05530753 -0.20038429 29.55688477 -0.22631836 C33.14866684 -0.26262775 36.74009941 -0.27970975 40.33203125 -0.29296875 C41.45398392 -0.30845261 42.57593658 -0.32393646 43.73188782 -0.33988953 C44.77274033 -0.34011612 45.81359283 -0.34034271 46.88598633 -0.34057617 C47.80309891 -0.34723801 48.72021149 -0.35389984 49.66511536 -0.36076355 C52 0 52 0 53.7922821 1.30253601 C55.83229607 4.16980349 55.42267472 6.61860225 55 10 C52.63370886 12.55125081 51.19032061 12.97913266 47.70965576 13.36076355 C46.40393616 13.35410172 45.09821655 13.34743988 43.75292969 13.34057617 C43.03058136 13.34101425 42.30823303 13.34145233 41.56399536 13.34190369 C39.18301096 13.33981829 36.80273597 13.31649986 34.421875 13.29296875 C32.76849757 13.28737189 31.11511515 13.28310222 29.46173096 13.28010559 C25.11493132 13.26866386 20.76843351 13.23920259 16.42175293 13.20599365 C11.98433515 13.17527821 7.5468685 13.16159711 3.109375 13.14648438 C-5.59388834 13.11433213 -14.2969066 13.06314406 -23 13 C-23 12.67 -23 12.34 -23 12 C-15.41 12 -7.82 12 0 12 C0 8.04 0 4.08 0 0 Z " fill="#3185FF" transform="translate(222,391)"/>
<path d="M0 0 C4.58312084 -0.11605098 9.16586449 -0.18720362 13.75 -0.25 C15.05195313 -0.28351563 16.35390625 -0.31703125 17.6953125 -0.3515625 C18.94570313 -0.36445313 20.19609375 -0.37734375 21.484375 -0.390625 C22.63647461 -0.41157227 23.78857422 -0.43251953 24.97558594 -0.45410156 C28 0 28 0 30.37402344 1.33886719 C33.00702998 5.64814216 32.56985069 10.01729879 32.53125 14.96875 C32.5350769 16.04120972 32.53890381 17.11366943 32.54284668 18.21862793 C32.54556716 20.48479146 32.53819653 22.75098631 32.52148438 25.01708984 C32.50007794 28.48736528 32.52128275 31.95557027 32.546875 35.42578125 C32.54423175 37.62760874 32.53910683 39.82943494 32.53125 42.03125 C32.53934692 43.06987183 32.54744385 44.10849365 32.55578613 45.17858887 C32.46377681 52.24096588 32.46377681 52.24096588 30.37402344 55.66113281 C27.23860445 57.42940078 25.07760539 57.45595646 21.484375 57.390625 C20.23398437 57.37773437 18.98359375 57.36484375 17.6953125 57.3515625 C15.74238281 57.30128906 15.74238281 57.30128906 13.75 57.25 C12.43257813 57.23195313 11.11515625 57.21390625 9.7578125 57.1953125 C6.50447692 57.14816271 3.25260375 57.08236044 0 57 C0 56.67 0 56.34 0 56 C7.26 56 14.52 56 22 56 C22 37.85 22 19.7 22 1 C14.74 1 7.48 1 0 1 C0 0.67 0 0.34 0 0 Z " fill="#3A81FF" transform="translate(245,320)"/>
<path d="M0 0 C1.29873047 0.05478516 2.59746094 0.10957031 3.93554688 0.16601562 C5.30730959 0.23924839 6.67905423 0.31282045 8.05078125 0.38671875 C9.43418046 0.44999037 10.81764474 0.51185603 12.20117188 0.57226562 C15.58943705 0.72574105 18.97637046 0.89362989 22.36328125 1.07421875 C22.36328125 5.03421875 22.36328125 8.99421875 22.36328125 13.07421875 C66.25328125 13.07421875 110.14328125 13.07421875 155.36328125 13.07421875 C155.36328125 13.40421875 155.36328125 13.73421875 155.36328125 14.07421875 C134.58826962 14.167636 113.8132926 14.23818517 93.03811359 14.28146744 C83.3919555 14.3020978 73.74592787 14.33022745 64.09985352 14.37597656 C55.69290032 14.41582982 47.28604159 14.44164812 38.87899655 14.45057273 C34.42697181 14.45579005 29.97521735 14.4680624 25.52327919 14.49713898 C21.33310229 14.52428427 17.14330709 14.53266559 12.95305061 14.52664948 C11.41513749 14.52775012 9.87721164 14.53570951 8.33937454 14.55104065 C6.23870534 14.57095597 4.13947539 14.56615398 2.03877258 14.55523682 C0.86348653 14.55892399 -0.31179953 14.56261116 -1.52270031 14.56641006 C-5.31758125 13.96660391 -6.9872021 12.82219571 -9.63671875 10.07421875 C-10.44533003 4.3128634 -10.44533003 4.3128634 -8.52026367 1.36401367 C-5.67497363 -0.58435539 -3.4060876 -0.16361119 0 0 Z " fill="#4F93FF" transform="translate(244.63671875,42.92578125)"/>
<path d="M0 0 C21.02774793 -0.10793679 41.99422389 -0.11183692 63 1 C63 4.63 63 8.26 63 12 C50.03267703 13.18138452 37.13552285 13.11334484 24.125 13.0625 C21.87630308 13.05747407 19.62760507 13.0529131 17.37890625 13.04882812 C11.9192467 13.03791117 6.45962857 13.02126001 1 13 C1 12.67 1 12.34 1 12 C8.26 12 15.52 12 23 12 C23 8.37 23 4.74 23 1 C15.41 1 7.82 1 0 1 C0 0.67 0 0.34 0 0 Z " fill="#387AFF" transform="translate(244,92)"/>
<path d="M0 0 C21.02774793 -0.10793679 41.99422389 -0.11183692 63 1 C63 4.96 63 8.92 63 13 C49.8 13 36.6 13 23 13 C23 9.04 23 5.08 23 1 C15.41 1 7.82 1 0 1 C0 0.67 0 0.34 0 0 Z " fill="#387AFF" transform="translate(244,43)"/>
<path d="M0 0 C4.95 0 9.9 0 15 0 C15 10.23 15 20.46 15 31 C10.05 31 5.1 31 0 31 C0 20.77 0 10.54 0 0 Z " fill="#F3F8FF" transform="translate(248,333)"/>
<path d="M0 0 C1.37495408 -0.01449433 2.75036523 -0.0011956 4.12495422 0.03364563 C4.87641724 0.0329155 5.62788025 0.03218536 6.40211487 0.03143311 C8.88638969 0.03491712 11.36879018 0.07381306 13.85273743 0.11299133 C15.57479833 0.12231665 17.29687251 0.12943409 19.01895142 0.13442993 C23.55176917 0.15352207 28.08378598 0.2026414 32.61628723 0.25794983 C37.24121769 0.30909488 41.86627757 0.33193379 46.4914093 0.35713196 C55.56663103 0.41075844 64.64125826 0.49609765 73.71601868 0.60127258 C73.71601868 0.93127258 73.71601868 1.26127258 73.71601868 1.60127258 C52.26601868 1.93127258 30.81601868 2.26127258 8.71601868 2.60127258 C8.71601868 5.90127258 8.71601868 9.20127258 8.71601868 12.60127258 C40.39601868 13.09627258 40.39601868 13.09627258 72.71601868 13.60127258 C72.71601868 13.93127258 72.71601868 14.26127258 72.71601868 14.60127258 C63.13671602 14.64760676 53.55745193 14.68314729 43.97806168 14.70489693 C39.52999667 14.71533549 35.08200832 14.72949603 30.63398743 14.75215149 C26.34164933 14.77387725 22.04938499 14.78584066 17.75699615 14.79102707 C16.11913136 14.7947233 14.48127061 14.80194107 12.84343719 14.8127327 C10.54989896 14.82724413 8.25666573 14.82925068 5.96308899 14.82832336 C4.65736938 14.83276459 3.35164978 14.83720581 2.00636292 14.84178162 C-1.07558784 14.61650519 -2.81935432 14.43224677 -5.28398132 12.60127258 C-6.34181654 8.86358814 -6.65209313 6.56160611 -5.25094604 2.90628052 C-3.28398132 0.60127258 -3.28398132 0.60127258 0 0 Z " fill="#5282FF" transform="translate(298.2839813232422,196.3987274169922)"/>
<path d="M0 0 C12.87 0 25.74 0 39 0 C39 4.29 39 8.58 39 13 C29.76 13 20.52 13 11 13 C11 12.67 11 12.34 11 12 C13.31 12 15.62 12 18 12 C18 8.37 18 4.74 18 1 C12.06 1 6.12 1 0 1 C0 0.67 0 0.34 0 0 Z " fill="#1B9EFF" transform="translate(124,92)"/>
<path d="M0 0 C1.00520187 -0.00043808 2.01040375 -0.00087616 3.04606628 -0.00132751 C6.36847356 0.00076244 9.69037619 0.02410375 13.01269531 0.04760742 C15.31626103 0.05320263 17.61983032 0.05747308 19.92340088 0.06047058 C25.98648941 0.07192522 32.04936237 0.10139799 38.11236572 0.13458252 C44.29916467 0.1652699 50.48599845 0.17897309 56.67285156 0.1940918 C68.8122692 0.22626688 80.95152683 0.27747093 93.09082031 0.34057617 C93.09082031 0.67057617 93.09082031 1.00057617 93.09082031 1.34057617 C62.73082031 1.34057617 32.37082031 1.34057617 1.09082031 1.34057617 C1.09082031 5.63057617 1.09082031 9.92057617 1.09082031 14.34057617 C-10.10393066 14.94898655 -10.10393066 14.94898655 -13.72167969 12.21557617 C-15.19132027 8.65749898 -15.17070584 6.96746387 -13.90917969 3.34057617 C-10.2223778 -0.89604958 -5.16822286 -0.05875505 0 0 Z " fill="#5F8CFF" transform="translate(305.9091796875,389.659423828125)"/>
<path d="M0 0 C1.40958984 -0.00193359 1.40958984 -0.00193359 2.84765625 -0.00390625 C3.83636719 -0.00003906 4.82507813 0.00382812 5.84375 0.0078125 C7.32681641 0.00201172 7.32681641 0.00201172 8.83984375 -0.00390625 C9.77957031 -0.00261719 10.71929687 -0.00132813 11.6875 0 C12.55568359 0.00112793 13.42386719 0.00225586 14.31835938 0.00341797 C16.34375 0.1328125 16.34375 0.1328125 17.34375 1.1328125 C17.48730117 5.13501903 17.38591403 9.12722933 17.34375 13.1328125 C10.08375 13.1328125 2.82375 13.1328125 -4.65625 13.1328125 C-4.32625 9.5028125 -3.99625 5.8728125 -3.65625 2.1328125 C-4.31625 1.8028125 -4.97625 1.4728125 -5.65625 1.1328125 C-4.03424485 -0.48919265 -2.23601969 0.002905 0 0 Z " fill="#1C9FFF" transform="translate(145.65625,125.8671875)"/>
<path d="M0 0 C6.93 0 13.86 0 21 0 C21 3.96 21 7.92 21 12 C7.9835398 12.7680946 -4.96123872 13.13274757 -18 13 C-18 12.67 -18 12.34 -18 12 C-12.06 12 -6.12 12 0 12 C0 8.04 0 4.08 0 0 Z " fill="#1B9FFF" transform="translate(142,391)"/>
<path d="M0 0 C13.03876128 -0.13274757 25.9835398 0.2319054 39 1 C39 4.96 39 8.92 39 13 C32.07 13 25.14 13 18 13 C18 9.04 18 5.08 18 1 C12.06 1 6.12 1 0 1 C0 0.67 0 0.34 0 0 Z " fill="#1B9FFF" transform="translate(124,43)"/>
<path d="M0 0 C0 3.63 0 7.26 0 11 C31.68 11.495 31.68 11.495 64 12 C64 12.33 64 12.66 64 13 C54.2904258 13.11583031 44.58101585 13.20468288 34.87089157 13.25906086 C30.36208449 13.28515929 25.85374995 13.32056122 21.34521484 13.37719727 C16.99448247 13.43150921 12.64420468 13.46141868 8.29315948 13.47438622 C6.63290499 13.48362767 4.97267549 13.50167443 3.31261444 13.52865028 C0.98748449 13.56493208 -1.33576551 13.56994607 -3.66113281 13.56762695 C-4.3480571 13.58560333 -5.03498138 13.60357971 -5.74272156 13.62210083 C-9.39080434 13.5827103 -10.7612946 13.23012404 -13.4274292 10.65983582 C-15.33594167 7.43179048 -15.64136121 5.68782698 -15 2 C-10.52657212 -2.54659142 -5.86764059 -0.76838151 0 0 Z " fill="#4D81FF" transform="translate(307,167)"/>
<path d="M0 0 C1.11826172 0.00966797 2.23652344 0.01933594 3.38867188 0.02929688 C5.13954102 0.06700195 5.13954102 0.06700195 6.92578125 0.10546875 C8.10462891 0.11900391 9.28347656 0.13253906 10.49804688 0.14648438 C13.41191536 0.18187549 16.3248707 0.23125066 19.23828125 0.29296875 C19.23828125 0.62296875 19.23828125 0.95296875 19.23828125 1.29296875 C14.94828125 1.29296875 10.65828125 1.29296875 6.23828125 1.29296875 C6.23828125 4.92296875 6.23828125 8.55296875 6.23828125 12.29296875 C4.30429317 12.56882441 2.36574216 12.8128429 0.42578125 13.04296875 C-1.19263672 13.25179687 -1.19263672 13.25179687 -2.84375 13.46484375 C-5.76171875 13.29296875 -5.76171875 13.29296875 -7.625 11.5 C-9.14278109 8.55310545 -9.17923438 6.56350788 -8.76171875 3.29296875 C-6.33645778 -0.1787427 -4.05727126 -0.06178586 0 0 Z " fill="#3D79FF" transform="translate(300.76171875,134.70703125)"/>
<path d="M0 0 C6.19300719 -0.07416092 12.38575584 -0.12860756 18.57910156 -0.16479492 C20.6859182 -0.17988069 22.79270344 -0.20035193 24.89941406 -0.22631836 C27.9278132 -0.26271053 30.95579709 -0.2797285 33.984375 -0.29296875 C34.92617615 -0.30845261 35.86797729 -0.32393646 36.83831787 -0.33988953 C37.71892883 -0.34011612 38.59953979 -0.34034271 39.50683594 -0.34057617 C40.27960876 -0.34723801 41.05238159 -0.35389984 41.84857178 -0.36076355 C44.62720315 0.10517294 45.99177145 1.0438042 48 3 C48.46913089 7.37855495 48.46943529 9.29584707 46 13 C44.0546875 13.29296875 44.0546875 13.29296875 41.875 13.1875 C40.59625 13.125625 39.3175 13.06375 38 13 C38 9.04 38 5.08 38 1 C25.46 1 12.92 1 0 1 C0 0.67 0 0.34 0 0 Z " fill="#4E63FF" transform="translate(327,166)"/>
<path d="M0 0 C2.3125 1.625 2.3125 1.625 4 4 C4.44922076 7.14454533 4.56034621 9.04411529 2.9375 11.8125 C-0.09983854 13.67409459 -2.4569417 14 -6 14 C-8.5 11.9375 -8.5 11.9375 -10 9 C-10 5.43909099 -9.69349238 3.74302755 -7.25 1.125 C-4.50272993 -0.24863504 -3.03212094 -0.53062116 0 0 Z " fill="#2A9DFF" transform="translate(176,67)"/>
<path d="M0 0 C2.3125 1.0625 2.3125 1.0625 4 3 C4.57853373 6.97741941 4.58532629 9.09949802 2.375 12.5 C0 14 0 14 -3.0625 13.9375 C-7.48421053 12.52631579 -7.48421053 12.52631579 -9 10 C-9.4375 6.5 -9.4375 6.5 -9 3 C-6.33856846 -0.0557177 -3.95300117 -0.59295018 0 0 Z " fill="#1DABFF" transform="translate(123,67)"/>
<path d="M0 0 C3.09443084 0.5415254 4.42308202 1.05289047 6.5 3.4375 C6.96913089 7.81605495 6.96943529 9.73334707 4.5 13.4375 C1.4527251 14.50816415 -0.13660511 14.54486667 -3.25 13.625 C-5.5 12.4375 -5.5 12.4375 -6.5 10.4375 C-6.89366259 6.8158042 -6.95225485 5.07400683 -4.8125 2.0625 C-2.5 0.4375 -2.5 0.4375 0 0 Z " fill="#0FB7FF" transform="translate(67.5,66.5625)"/>
<path d="M0 0 C6.0546875 -0.1953125 6.0546875 -0.1953125 8 0 C10 2 10 2 10.3125 5.4375 C10 9 10 9 8.90893555 10.7043457 C6.01894163 12.66587502 3.60295248 12.33674623 0.14453125 12.29296875 C-0.51710526 12.28872391 -1.17874176 12.28447906 -1.86042786 12.28010559 C-3.9698691 12.26333693 -6.07834846 12.22569099 -8.1875 12.1875 C-9.61912681 12.17245068 -11.05076862 12.1587627 -12.48242188 12.14648438 C-15.98859288 12.1134403 -19.49420254 12.06167167 -23 12 C-23 11.67 -23 11.34 -23 11 C-15.41 11 -7.82 11 0 11 C0 7.37 0 3.74 0 0 Z " fill="#4D63FF" transform="translate(365,136)"/>
<path d="M0 0 C6.0546875 -0.1953125 6.0546875 -0.1953125 8 0 C10 2 10 2 10.265625 3.875 C10.26046875 4.57625 10.2553125 5.2775 10.25 6 C10.25515625 6.70125 10.2603125 7.4025 10.265625 8.125 C10 10 10 10 8 12 C6.02880859 12.22705078 6.02880859 12.22705078 3.6484375 12.1953125 C2.79765625 12.18886719 1.946875 12.18242187 1.0703125 12.17578125 C-0.26386719 12.15064453 -0.26386719 12.15064453 -1.625 12.125 C-2.97078125 12.11146484 -2.97078125 12.11146484 -4.34375 12.09765625 C-6.56276586 12.0740497 -8.78125077 12.0411231 -11 12 C-11 11.67 -11 11.34 -11 11 C-7.37 11 -3.74 11 0 11 C0 7.37 0 3.74 0 0 Z " fill="#4E64FF" transform="translate(365,198)"/>
<path d="M0 0 C4.95 0 9.9 0 15 0 C15 0.33 15 0.66 15 1 C14.10796875 1.03738281 13.2159375 1.07476562 12.296875 1.11328125 C11.12640625 1.17902344 9.9559375 1.24476563 8.75 1.3125 C7.58984375 1.37050781 6.4296875 1.42851562 5.234375 1.48828125 C1.89180362 2.01711803 0.4502943 2.73772333 -2 5 C-1.34 3.35 -0.68 1.7 0 0 Z " fill="#5B72FF" transform="translate(350,285)"/>
</svg>
